<?xml version="1.0" encoding="UTF-8" standalone="no"?>
<!-- Generator: Adobe Illustrator 17.0.0, SVG Export Plug-In . SVG Version: 6.00 Build 0)  -->
<svg xmlns:dc="http://purl.org/dc/elements/1.1/" xmlns:cc="http://creativecommons.org/ns#" xmlns:rdf="http://www.w3.org/1999/02/22-rdf-syntax-ns#" xmlns:svg="http://www.w3.org/2000/svg" xmlns="http://www.w3.org/2000/svg" xmlns:sodipodi="http://sodipodi.sourceforge.net/DTD/sodipodi-0.dtd" xmlns:inkscape="http://www.inkscape.org/namespaces/inkscape" version="1.1" id="svg10892" sodipodi:docname="BatteryLow.svg" inkscape:version="0.91 r13725" x="0px" y="0px" width="400" height="700" viewBox="0 0 400 700" enable-background="new 0 0 483.5 300" xml:space="preserve">
    <defs id="defs23" />
    <sodipodi:namedview pagecolor="#ffffff" bordercolor="#666666" borderopacity="1" objecttolerance="10" gridtolerance="10" guidetolerance="10" inkscape:pageopacity="0" inkscape:pageshadow="2" inkscape:window-width="1366" inkscape:window-height="702" id="namedview21" showgrid="false" inkscape:zoom="1.1926534" inkscape:cx="244.77292" inkscape:cy="594.47329" inkscape:window-x="0" inkscape:window-y="27" inkscape:window-maximized="1" inkscape:current-layer="svg10892" />
    <g id="layer1" transform="translate(0,-352.36216)" inkscape:label="Layer 1" inkscape:groupmode="layer" />
    <g id="g4214" transform="matrix(0.43541035,0,0,0.43541035,106.83769,71.968784)">
        <path inkscape:connector-curvature="0" style="clip-rule:evenodd;fill:#6bc5d3;fill-opacity:1;fill-rule:evenodd" id="path15" d="m 391.20294,303.74719 -0.354,-178.532 c -0.011,-5.489 -4.47,-9.887 -9.959,-9.876 l -19.792,0.039 -0.02,-9.881 c -0.011,-5.489 -4.484,-9.945 -9.915,-9.934 l -19.894,0.039 c -5.489,0.011 -9.828,4.484 -9.817,9.974 l 0.02,9.881 -19.894,0.039 c -5.489,0.011 -9.887,4.484 -9.876,9.973 l 0.354,178.474 c 0.011,5.489 4.426,9.872 9.915,9.861 l 79.37,-0.158 c 5.432,-0.009 9.873,-4.409 9.862,-9.899 l 0,0 z" />
        <rect style="clip-rule:evenodd;fill:#2bff10;fill-opacity:1;fill-rule:evenodd;stroke:#87ee00;stroke-opacity:1" id="rect17" height="59.477119" width="158.68332" transform="matrix(0.002,0.999998,-0.999998,0.002,0,0)" y="-370.76758" x="135.95273" />
        <path style="clip-rule:evenodd;fill:#020400;fill-rule:evenodd" inkscape:connector-curvature="0" id="path19" d="M 321.49194,155.08419" />
    </g>
    <g id="g4172" transform="matrix(0.48012323,0,0,0.48012323,15.037805,145.26182)">
        <g transform="matrix(3.9267189,0,0,3.9267189,-1512.4448,-1239.9633)" id="g6054">
            <path style="fill:#414e63" d="m 462.881,355.417 c 0,16.574 -13.436,30.01 -30.01,30.01 -16.574,0 -30.01,-13.436 -30.01,-30.01 0,-16.574 13.436,-30.01 30.01,-30.01 16.574,0 30.01,13.436 30.01,30.01" inkscape:connector-curvature="0" id="path988" />
            <path style="fill:#6bc5d3" d="m 459.722,355.417 c 0,14.829 -12.021,26.85 -26.85,26.85 -14.83,0 -26.851,-12.021 -26.851,-26.85 0,-14.83 12.021,-26.851 26.851,-26.851 14.828,0 26.85,12.021 26.85,26.851" inkscape:connector-curvature="0" id="path992" />
            <path style="fill:#414e63" d="m 455.389,344.847 c -0.486,-5.021 -9.72,-13.284 -22.517,-13.284 l 0,18.63 15.876,0 c 1.618,0 7.127,-0.324 6.641,-5.346" inkscape:connector-curvature="0" id="path996" />
            <path style="fill:#414e63" d="m 410.353,344.847 c -0.486,5.022 5.022,5.346 6.641,5.346 l 15.876,0 0,-18.63 c -12.797,0 -22.03,8.262 -22.517,13.284" inkscape:connector-curvature="0" id="path1000" />
            <path style="fill:#414e63" d="m 410.353,365.744 c 0.486,5.022 9.72,13.284 22.517,13.284 l 0,-18.63 -15.876,0 c -1.618,0 -7.127,0.324 -6.641,5.346" inkscape:connector-curvature="0" id="path1004" />
            <path style="fill:#414e63" d="m 455.389,365.744 c 0.486,-5.022 -5.022,-5.346 -6.641,-5.346 l -15.876,0 0,18.63 c 12.797,0 22.031,-8.261 22.517,-13.284" inkscape:connector-curvature="0" id="path1008" />
            <path style="fill:#414e63" d="m 425.885,326.379 c 0,0 3.564,-1.134 4.212,-2.754 0.647,-1.62 1.781,-2.754 3.564,-2.754 1.781,0 4.211,4.211 6.641,5.508 -2.267,1.296 -13.284,0.81 -13.284,0.81 l -1.133,-0.81 0,0 z" inkscape:connector-curvature="0" id="path1012" />
            <path style="fill:#ffffff" d="m 434.795,323.788 c 0,0.805 -0.652,1.457 -1.457,1.457 -0.806,0 -1.459,-0.652 -1.459,-1.457 0,-0.806 0.652,-1.459 1.459,-1.459 0.804,0 1.457,0.652 1.457,1.459" inkscape:connector-curvature="0" id="path1016" />
        </g>
        <circle r="5.0395255" cy="100.49408" cx="140.21738" id="path4161" style="opacity:1;fill:#00ff00;fill-opacity:1;fill-rule:nonzero;stroke:#00ff00;stroke-width:0.59100002;stroke-linecap:round;stroke-linejoin:round;stroke-miterlimit:4;stroke-dasharray:none;stroke-opacity:1" />
    </g>
    <text xml:space="preserve" style="font-style:normal;font-weight:normal;font-size:40px;line-height:125%;font-family:sans-serif;letter-spacing:0px;word-spacing:0px;fill:#000000;fill-opacity:1;stroke:none;stroke-width:1px;stroke-linecap:butt;stroke-linejoin:miter;stroke-opacity:1" x="155.1163" y="40.126835" id="text4463" sodipodi:linespacing="125%">
        <tspan sodipodi:role="line" id="tspan4465" x="155.1163" y="40.126835"></tspan>
    </text>
    <g id="g5096">
        <g transform="translate(32.700195,9.6680904)" id="g4270">
            <g transform="translate(-30.184795,-25.153996)" id="g4433">
                <path d="m 248.78309,96.263637 c -1.01146,-2.818983 -3.32471,-4.860627 -5.57241,-6.730588 -2.59733,-5.612983 -7.28939,-10.108367 -13.23016,-12.231181 10.80141,-8.943937 11.06677,-25.945221 1.16131,-36.091047 -5.45065,-5.578639 -13.02724,-8.709797 -20.75368,-8.709797 -4.5984,0 -9.16246,1.067644 -13.35503,2.940723 -3.49016,1.557775 -6.21861,4.25813 -9.37787,6.19052 0.32155,-5.669186 -1.49845,-11.42265 -4.90745,-15.980464 -5.87834,-7.86691 -15.31864,-9.914814 -24.59973,-9.952272 -8.65361,-0.03119 -18.1064,1.629577 -24.49359,8.06047 -3.83668,3.86478 -6.3185,9.274842 -5.92516,14.613114 -3.7399,-6.015696 -10.38933,-7.913747 -17.68184,-7.451724 -5.80341,-0.683672 -11.79413,0.449537 -16.960697,3.799216 -0.727378,0.477643 -1.485977,1.055169 -2.250813,1.710745 -4.198808,2.051017 -7.860671,4.423582 -10.404933,6.683763 -6.006332,5.316408 -10.170801,13.579793 -8.678587,21.805725 0.352759,1.935503 1.189406,4.030227 2.394413,5.769073 -5.556793,0.287203 -11.238451,1.854344 -15.356097,5.381966 -6.234225,5.328899 -8.010518,13.963781 -8.051103,21.861921 -0.03119,7.70771 1.120725,16.67037 6.855452,22.31144 3.068726,3.01566 7.033404,4.51724 10.926277,4.1676 -3.586936,11.46322 2.822104,25.41139 13.501759,30.64352 9.527706,4.67333 20.354089,1.95737 26.488409,-5.55679 0.6306,1.89805 2.03541,3.89287 3.20608,5.37885 4.68269,5.9158 11.59122,10.03031 18.91183,11.49756 12.00954,2.4069 24.67465,-2.90951 31.81419,-12.72442 6.30602,10.79827 23.07629,14.79729 34.193,11.12295 13.57043,-4.4829 21.44671,-22.18972 13.48614,-34.7643 -0.28721,-1.25183 -0.68367,-2.48182 -1.13945,-3.68996 13.20205,4.28935 27.59665,-0.45578 35.47293,-12.36854 3.14676,-4.76073 6.39031,-11.89715 4.32681,-17.688073 z M 224.10843,39.194143 c 13.35504,8.375769 15.75257,27.596652 2.45061,37.158697 -0.10926,-0.01872 -0.21229,-0.05622 -0.31842,-0.07177 10.30816,-7.364316 11.75667,-23.079419 2.62855,-32.76634 -5.07604,-5.38821 -11.24782,-7.923108 -17.61316,-8.297724 4.51412,0.237259 8.94394,1.529678 12.85242,3.977159 z M 159.22509,18.243786 c 15.08763,0.452666 26.58207,9.449673 25.53626,24.758945 -2.96258,-13.564188 -14.29781,-24.168923 -28.65805,-24.037809 -11.65366,0.106146 -24.12522,7.845068 -26.64451,19.317656 0.60876,-14.52882 16.21459,-20.441498 29.7663,-20.038792 z M 76.325874,52.074664 c 2.147798,-4.008385 5.319534,-7.161396 8.990768,-9.643227 -6.218614,8.219685 -11.129194,20.119962 -7.901263,28.217888 -0.390225,-0.01246 -0.786688,0 -1.180032,0 -3.699327,-4.595276 -2.52866,-13.704666 0.09053,-18.574661 z M 62.583747,76.075003 c 4.242513,-2.556751 8.890861,-2.928248 13.589159,-3.153011 1.039555,0.852249 2.225842,1.407932 3.521384,1.526554 -11.915883,-0.337153 -22.842159,6.958475 -26.43846,18.474769 0.796053,-6.749317 3.287246,-13.214543 9.327917,-16.848312 z m 7.901255,48.006927 c 0.552557,-0.14048 1.095751,-0.33715 1.638936,-0.56504 0.46515,-0.0562 0.942783,-0.13112 1.417298,-0.24038 -3.640013,7.19886 -3.199838,16.2739 1.105116,22.97327 -4.807562,-6.2311 -6.805512,-14.77544 -4.16135,-22.16785 z m 67.393268,40.30235 c -5.42256,0.29032 -10.87632,-1.05829 -15.6714,-3.62752 -2.47246,-1.32364 -12.27489,-8.23218 -12.35606,-13.08968 0.57753,-0.88035 1.11136,-1.79816 1.55777,-2.78152 2.36632,6.2748 6.41529,10.96062 11.27592,14.02933 -0.14984,0.47139 0.4433,0.81791 0.7867,0.46827 2.59733,1.52032 5.41006,2.55988 8.30709,3.17175 -0.0655,0.13424 -0.13736,0.2591 -0.20292,0.39334 -0.27471,0.56192 0.51822,1.04268 0.8304,0.49324 0.12799,-0.23101 0.27159,-0.44953 0.40583,-0.6743 10.35811,1.7919 21.62154,-2.18526 28.15233,-12.30299 0.0187,0.0562 0.0374,0.11863 0.0562,0.17482 -5.43193,7.74517 -13.20831,13.22391 -23.14185,13.74526 z m 30.36256,-7.45172 c -1.8044,-1.44851 -3.39027,-3.1218 -4.62962,-5.02921 0.0874,-0.13424 0.18419,-0.26224 0.26535,-0.39959 1.30491,1.8325 2.83771,3.48704 4.52973,4.93868 -0.0562,0.16545 -0.11551,0.32466 -0.16546,0.49012 z m 41.26073,-11.66302 c -0.97088,7.7077 -5.45377,14.37274 -14.67867,17.08245 -8.11978,2.3788 -18.71826,0.50261 -25.95771,-4.94804 0.0968,-0.11551 0.18419,-0.2435 0.28096,-0.36213 7.5485,6.05628 18.08143,8.20407 27.2439,3.8523 6.57449,-3.12804 11.03241,-8.9658 13.11152,-15.62458 z m -3.09369,-23.39783 c -1.12385,-0.3715 -2.0916,1.00209 -1.51095,1.98857 0.96463,1.64831 1.69513,3.40276 2.23832,5.20716 -0.0187,0.16233 -0.009,0.33715 0.0687,0.53382 0.12488,0.29969 0.2154,0.60875 0.33092,0.91157 2.46621,10.48922 -1.85435,22.48315 -11.76292,27.59352 -1.99795,1.03332 -4.08018,1.6889 -6.19364,2.02292 2.26955,-3.86166 4.1676,-7.85443 5.60363,-12.13129 0.30905,-0.9178 -1.07703,-1.26432 -1.40794,-0.39334 -1.67952,4.34866 -3.58382,8.6099 -5.80341,12.69945 -3.09682,0.24662 -6.21549,-0.15921 -9.16871,-1.14569 2.93137,-3.24354 5.16033,-6.95848 6.57763,-11.19163 0.28407,-0.84913 -1.0021,-1.18004 -1.31116,-0.36838 -1.54841,4.08331 -3.73366,7.82946 -6.58698,11.08237 -2.42876,-0.96151 -4.73576,-2.2914 -6.79615,-3.93658 0.64309,-1.12384 1.2175,-2.29452 1.82626,-3.39651 1.34549,-2.435 2.60669,-4.92306 3.87726,-7.39865 0.35901,-0.69928 -0.65558,-1.30803 -1.04579,-0.61811 -1.37047,2.41938 -2.75655,4.8294 -4.0521,7.2925 -0.55255,1.04268 -1.17379,2.10097 -1.74509,3.18423 -1.6202,-1.44851 -3.06871,-3.09369 -4.27372,-4.90121 0.3309,-0.67743 0.64933,-1.36735 0.92405,-2.07912 0.51197,-1.31739 -1.59524,-2.18525 -2.24769,-0.95839 -0.0655,0.128 -0.14049,0.24975 -0.21229,0.37774 -0.19043,-0.38086 -0.39646,-0.74611 -0.56192,-1.13945 -0.36838,-0.84913 -1.80752,-0.8304 -2.18526,0 -3.1093,6.85233 -8.24152,11.3758 -14.05743,13.67033 2.48808,-3.73054 4.91371,-7.50167 7.23944,-11.33523 0.47764,-0.77733 -0.70553,-1.45788 -1.19565,-0.71178 -2.74405,4.1676 -5.38509,8.40699 -7.92623,12.7057 -3.50577,1.07078 -7.19573,1.38296 -10.79516,0.91469 3.14053,-5.18842 6.54953,-10.16768 10.22388,-15.00334 0.44329,-0.57753 -0.52447,-1.333 -0.99586,-0.78045 -4.06769,4.77635 -7.52976,10.0272 -10.45487,15.58712 -2.83147,-0.50885 -5.59426,-1.46412 -8.14476,-2.922 2.21022,-3.4527 4.26749,-7.00842 6.29664,-10.5704 0.32155,-0.56504 -0.51821,-1.05204 -0.85849,-0.50884 -2.20398,3.44958 -4.37675,6.93662 -6.39967,10.50483 -2.17901,-1.37983 -4.18321,-3.10618 -5.91892,-5.20404 0.0937,-0.13735 0.17482,-0.28407 0.28408,-0.41518 0.3434,-0.4714 0.67431,-0.94591 1.0021,-1.42979 0.5026,-0.71489 0.99585,-1.43602 1.49222,-2.15403 1.1613,-1.6764 2.26954,-3.38091 3.31846,-5.12287 0.35901,-0.60251 -0.51197,-1.0739 -0.90844,-0.54007 -2.08224,2.80337 -3.99902,5.72225 -5.86273,8.67859 -0.0187,0.0249 -0.0375,0.0531 -0.05,0.078 -1.68889,-2.23208 -3.09994,-4.82005 -4.12076,-7.77951 -0.128,-0.39334 -0.39335,-0.62436 -0.69617,-0.73675 0.16858,-0.56192 0.34652,-1.12071 0.47452,-1.71074 0.11238,-0.5307 -0.59939,-0.71176 -0.79293,-0.22165 -0.28409,0.743 -0.61188,1.46101 -0.97089,2.16029 0,0.003 -0.003,0.006 -0.006,0.009 0.19355,-0.97713 -1.11448,-1.72323 -1.66079,-0.72113 -2.2758,4.21129 -6.09687,7.49854 -10.464257,9.33728 3.374657,-4.42046 6.649417,-8.91584 9.921057,-13.4081 0.45266,-0.62124 -0.5588,-1.19565 -1.00521,-0.59939 -3.68996,4.87936 -7.37368,9.7681 -10.923163,14.74735 -3.184227,0.97712 -6.568255,1.18317 -9.811793,0.42457 2.291401,-2.72533 4.279978,-5.65669 5.912673,-8.86902 0.327796,-0.64308 -0.614989,-1.20813 -0.95839,-0.56816 -1.738836,3.23105 -3.749271,6.29978 -6.037543,9.15621 -1.361101,-0.41832 -2.687867,-0.99585 -3.958434,-1.78254 -0.967758,-0.60251 -1.851227,-1.28929 -2.650398,-2.03853 2.765908,-3.73054 5.188414,-7.66712 7.270652,-11.85032 0.268469,-0.54007 -0.518221,-1.01771 -0.805424,-0.47764 -2.154038,4.02087 -4.554695,7.89189 -7.14578,11.63804 -1.972975,-2.08223 -3.384027,-4.60152 -4.220665,-7.31748 2.990675,-5.12911 6.018816,-10.18953 9.452784,-15.05328 0.415198,-0.5869 -0.530703,-1.12385 -0.945902,-0.55881 -3.274763,4.48915 -6.352845,9.20305 -8.903353,14.17919 -1.304906,-5.70976 -0.215401,-12.05013 3.234177,-16.86392 0.811663,-1.13321 -0.711771,-2.22272 -1.720106,-1.74509 -1.373586,0.65245 -2.694111,1.07078 -3.958432,1.27681 0.131111,-0.23101 0.234129,-0.46826 0.374614,-0.69615 0.580652,-0.93966 -0.877223,-1.79504 -1.467248,-0.86786 -0.34964,0.55567 -0.658694,1.12696 -0.952139,1.70762 -0.337157,-0.003 -0.664949,-0.0249 -0.989614,-0.0625 1.904296,-2.28515 3.77737,-4.57342 5.553673,-6.96784 0.355886,-0.48388 -0.433929,-1.102 -0.824155,-0.64934 -2.082239,2.40066 -4.023992,4.89186 -5.956381,7.40802 -1.804397,-0.40895 -3.44646,-1.26744 -4.910581,-2.45373 3.992772,-5.34451 7.9075,-10.74209 11.731702,-16.21459 0.393345,-0.55568 -0.502608,-1.06453 -0.892833,-0.5307 -3.91161,5.35075 -7.735803,10.76081 -11.478835,16.2302 -1.333009,-1.20814 -2.509922,-2.68787 -3.502655,-4.34866 2.81274,-4.68269 5.600496,-9.38099 8.303972,-14.13236 0.368369,-0.65558 -0.611873,-1.23623 -1.002098,-0.59314 -2.700348,4.51099 -5.316408,9.06569 -7.916865,13.63599 -1.192524,-2.26018 -2.066628,-4.77947 -2.594212,-7.32373 2.444371,-4.39548 5.116626,-8.656725 7.895018,-12.839923 0.318419,-0.468271 -0.424565,-0.889718 -0.742985,-0.443294 -2.753425,3.858531 -5.160329,7.907497 -7.373679,12.096947 -0.496363,-3.09058 -0.480752,-6.16867 0.134238,-8.806585 3.128041,-13.333171 16.323855,-20.606951 29.195007,-17.734905 1.326762,0.29657 2.35383,-1.716978 0.977118,-2.350706 -0.902197,-0.415204 -1.692012,-0.905317 -2.388165,-1.439147 0.06553,-0.03435 0.131112,-0.04997 0.196673,-0.08433 0.131111,-0.06554 0.07493,-0.28408 -0.0687,-0.277837 -0.196672,0.0094 -0.380861,0.0032 -0.571288,0 -0.390225,-0.330909 -0.761721,-0.677429 -1.092632,-1.045802 0.4152,-0.471395 0.184189,-1.354853 -0.627483,-1.457881 -0.152959,-0.02188 -0.309054,-0.03435 -0.462023,-0.05307 -5.322653,-8.922079 3.902248,-25.074233 12.740039,-32.588391 5.038572,-2.219599 11.385184,-4.351775 17.329074,-4.751368 7.83258,1.105118 15.12821,5.856486 19.02733,12.999142 0.73362,1.342373 2.56299,0.380864 2.31949,-0.989605 -2.68162,-14.934656 13.50488,-24.783911 26.3573,-23.931662 13.78272,0.911559 23.85986,12.646379 24.70899,26.257397 0.0655,1.142571 1.41105,1.804396 2.2633,0.952147 9.86799,-9.836769 25.05551,-15.200012 37.54893,-6.821114 12.1188,8.126018 13.38624,27.921307 -1.42978,33.996318 -1.32677,0.540074 -1.30804,2.784639 0.359,2.722204 1.58899,-0.05622 3.1093,0.06554 4.56094,0.337158 0.2716,0.199791 0.6025,0.284079 0.974,0.196672 0.39022,0.09053 0.75236,0.227887 1.12384,0.340277 0.0187,0.01562 0.0249,0.03739 0.0438,0.05622 4.05834,3.530751 8.19471,7.027158 12.15314,10.689023 2.49119,5.322661 2.87206,11.784765 0.37774,17.869145 -5.67854,13.86075 -21.14078,18.05021 -34.38342,13.65784 z m 39.3502,-16.97632 c -0.69304,2.7066 -2.12282,5.34139 -3.67435,7.65152 -0.41208,0.61187 -0.84913,1.1894 -1.29867,1.76069 1.58587,-2.32262 2.84707,-4.96678 3.69933,-7.9356 1.07077,-3.7399 1.19876,-7.46733 0.58065,-10.969984 1.48597,2.416274 1.81688,5.101014 0.69304,9.493374 z" id="path8" inkscape:connector-curvature="0" style="fill:#5cc4ce;fill-opacity:1" />
                <text xml:space="preserve" style="font-style:normal;font-variant:normal;font-weight:normal;font-stretch:normal;font-size:12.83748817px;line-height:125%;font-family:sans-serif;-inkscape-font-specification:'sans-serif, Normal';text-align:start;letter-spacing:0px;word-spacing:0px;writing-mode:lr-tb;text-anchor:start;fill:#000000;fill-opacity:1;stroke:none;stroke-width:1px;stroke-linecap:butt;stroke-linejoin:miter;stroke-opacity:1" x="149.24704" y="72.400879" id="text4141" sodipodi:linespacing="125%">
                    <tspan sodipodi:role="line" x="149.24704" y="72.400879" id="tspan4190" style="text-align:center;text-anchor:middle" />
                </text>
            </g>
        </g>
        <g id="g4499">
            <text xml:space="preserve" style="font-style:normal;font-weight:normal;font-size:40px;line-height:125%;font-family:sans-serif;letter-spacing:0px;word-spacing:0px;fill:#000000;fill-opacity:1;stroke:none;stroke-width:1px;stroke-linecap:butt;stroke-linejoin:miter;stroke-opacity:1" x="155.1427" y="56.057697" id="text4477" sodipodi:linespacing="125%">
                <tspan sodipodi:role="line" id="tspan4479" x="155.1427" y="56.057697" style="font-size:15px;text-align:center;text-anchor:middle;fill:#800000">Battery Alarms</tspan>
                <tspan sodipodi:role="line" x="155.1427" y="72.315826" id="tspan4481" style="font-size:11.25px;text-align:center;text-anchor:middle">You will get a notification</tspan>
                <tspan sodipodi:role="line" x="157.13245" y="87.940826" id="tspan4483" style="font-size:11.25px;text-align:center;text-anchor:middle"> if your battery is about to die. </tspan>
                <tspan sodipodi:role="line" x="155.1427" y="103.56583" id="tspan4485" style="font-size:11.25px;text-align:center;text-anchor:middle">This makes the device</tspan>
                <tspan sodipodi:role="line" x="155.1427" y="119.19083" id="tspan4487" style="font-size:11.25px;text-align:center;text-anchor:middle"> very user friendly.</tspan>
                <tspan sodipodi:role="line" x="155.1427" y="134.81583" id="tspan4489" style="font-size:12.5px;text-align:center;text-anchor:middle" />
            </text>
        </g>
    </g>
</svg>
