<?xml version="1.0" encoding="UTF-8" standalone="no"?>
<!-- Created with Inkscape (http://www.inkscape.org/) -->

<svg
   xmlns:dc="http://purl.org/dc/elements/1.1/"
   xmlns:cc="http://creativecommons.org/ns#"
   xmlns:rdf="http://www.w3.org/1999/02/22-rdf-syntax-ns#"
   xmlns:svg="http://www.w3.org/2000/svg"
   xmlns="http://www.w3.org/2000/svg"
   xmlns:sodipodi="http://sodipodi.sourceforge.net/DTD/sodipodi-0.dtd"
   xmlns:inkscape="http://www.inkscape.org/namespaces/inkscape"
   width="400"
   height="400"
   viewBox="0 0 400 400.00001"
   id="svg4198"
   version="1.1"
   inkscape:version="0.91 r13725"
   sodipodi:docname="scene3text.svg">
  <defs
     id="defs4200" />
  <sodipodi:namedview
     id="base"
     pagecolor="#ffffff"
     bordercolor="#666666"
     borderopacity="1.0"
     inkscape:pageopacity="0.0"
     inkscape:pageshadow="2"
     inkscape:zoom="1.265"
     inkscape:cx="200"
     inkscape:cy="200"
     inkscape:document-units="px"
     inkscape:current-layer="g4746"
     showgrid="false"
     units="px"
     inkscape:window-width="1366"
     inkscape:window-height="702"
     inkscape:window-x="0"
     inkscape:window-y="27"
     inkscape:window-maximized="1" />
  <metadata
     id="metadata4203">
    <rdf:RDF>
      <cc:Work
         rdf:about="">
        <dc:format>image/svg+xml</dc:format>
        <dc:type
           rdf:resource="http://purl.org/dc/dcmitype/StillImage" />
        <dc:title></dc:title>
      </cc:Work>
    </rdf:RDF>
  </metadata>
  <g
     inkscape:label="Layer 1"
     inkscape:groupmode="layer"
     id="layer1"
     transform="translate(0,-652.36214)" />
  <g
     transform="translate(-6.9925412e-7,-652.36216)"
     id="g4746">
    <path
       style="fill:#5cc4ce;fill-opacity:1"
       inkscape:connector-curvature="0"
       id="path8"
       d="m 384.49555,861.59351 c -1.89073,-5.26953 -6.21489,-9.08598 -10.41651,-12.5815 -4.85519,-10.49236 -13.62607,-18.89559 -24.73116,-22.86377 20.19109,-16.71892 20.68712,-48.49945 2.17084,-67.46506 -10.18892,-10.42816 -24.35185,-16.28124 -38.7949,-16.28124 -8.59579,0 -17.12739,1.99575 -24.96457,5.4971 -6.52417,2.91195 -11.62447,7.95973 -17.53007,11.57195 0.60107,-10.59742 -2.80107,-21.35238 -9.17351,-29.87231 -10.98839,-14.70563 -28.63516,-18.53378 -45.98432,-18.6038 -16.17621,-0.0583 -33.84632,3.04617 -45.78591,15.06745 -7.17192,7.22444 -11.81119,17.33748 -11.07591,27.31632 -6.99101,-11.24515 -19.42079,-14.79318 -33.05269,-13.92952 -10.84832,-1.27799 -22.04679,0.84032 -31.704662,7.10188 -1.35969,0.89286 -2.77774,1.97243 -4.20745,3.1979 -7.84884,3.83397 -14.693967,8.26901 -19.44996,12.49397 -11.227647,9.93797 -19.012296,25.38473 -16.222897,40.76148 0.659412,3.61804 2.223357,7.53371 4.475879,10.78414 -10.387322,0.53687 -21.008055,3.46633 -28.705179,10.06052 -11.653647,9.96132 -14.974076,26.10252 -15.049942,40.86652 -0.0583,14.40804 2.094975,31.16196 12.81491,41.70683 5.736375,5.63718 13.147555,8.44408 20.424508,7.7905 -6.705066,21.42822 5.275364,47.50156 25.238862,57.28199 17.810159,8.73585 38.047931,3.6589 49.514831,-10.38732 1.17879,3.54802 3.80479,7.27695 5.99314,10.05469 8.75336,11.05841 21.66748,18.74968 35.3519,21.49241 22.44945,4.49923 46.12436,-5.43875 59.47032,-23.78579 11.78786,20.18523 43.13655,27.66061 63.91704,20.79215 25.36722,-8.37989 40.09038,-41.47927 25.20966,-64.98495 -0.53687,-2.34006 -1.27798,-4.63928 -2.12998,-6.89765 24.67863,8.01808 51.58647,-0.85199 66.30961,-23.12054 5.88226,-8.89924 11.94542,-22.23937 8.08812,-33.06435 z M 338.37117,754.9134 c 24.96459,15.65684 29.4463,51.58647 4.58092,69.46082 -0.20423,-0.035 -0.39682,-0.10509 -0.59522,-0.13416 19.26906,-13.76613 21.97676,-43.1424 4.91355,-61.25018 -9.48865,-10.07219 -21.02557,-14.81068 -32.92431,-15.51095 8.43825,0.44351 16.71892,2.85943 24.02506,7.43451 z M 217.08463,715.75086 c 28.20333,0.84617 49.6899,17.66429 47.73498,46.28194 -5.53796,-25.35556 -26.72693,-45.17901 -53.57056,-44.93392 -21.78419,0.19842 -45.09731,14.6648 -49.80662,36.11053 1.13795,-27.15875 30.30996,-38.21133 55.6422,-37.45855 z M 62.120979,778.99098 c 4.014884,-7.49288 9.943816,-13.38681 16.806459,-18.0261 -11.624466,15.36507 -20.803822,37.61028 -14.769844,52.74775 -0.729449,-0.0233 -1.470558,0 -2.205836,0 -6.91516,-8.58996 -4.726829,-25.61816 0.169221,-34.72165 z m -25.688181,44.86388 c 7.930536,-4.77934 16.619701,-5.47378 25.402238,-5.89393 1.943243,1.59311 4.160771,2.63185 6.58253,2.85359 -22.274381,-0.63024 -42.698889,13.00749 -49.42146,34.53492 1.488063,-12.61651 6.144854,-24.70197 17.436692,-31.49458 z m 14.769829,89.73943 c 1.032897,-0.26259 2.04829,-0.63023 3.063666,-1.05623 0.869506,-0.10509 1.762347,-0.2451 2.649358,-0.44933 -6.804283,13.45683 -5.981463,30.42083 2.065795,42.94397 -8.986784,-11.6478 -12.721555,-27.61976 -7.778819,-41.43841 z m 125.978353,75.33726 c -10.1364,0.5427 -20.33113,-1.97827 -29.29458,-6.78093 -4.62177,-2.47429 -22.94547,-15.38842 -23.0972,-24.46856 1.07958,-1.64564 2.07747,-3.3613 2.91195,-5.1995 4.42336,11.7295 11.9921,20.4887 21.07809,26.22506 -0.2801,0.88116 0.82865,1.52892 1.47057,0.87533 4.8552,2.84193 10.11304,4.78518 15.52846,5.92895 -0.1225,0.25094 -0.25676,0.48435 -0.37931,0.73528 -0.51353,1.0504 0.9687,1.94909 1.55226,0.92202 0.23926,-0.43183 0.50768,-0.84032 0.75862,-1.26048 19.36243,3.34961 40.41718,-4.0849 52.6252,-22.998 0.035,0.1051 0.0699,0.22175 0.10509,0.3268 -10.15391,14.47806 -24.69031,24.71948 -43.2591,25.69403 z m 56.75678,-13.92952 c -3.37296,-2.7077 -6.33743,-5.83558 -8.65416,-9.40111 0.16339,-0.25093 0.34431,-0.49019 0.49602,-0.74695 2.43928,3.42549 5.30455,6.51833 8.46743,9.23188 -0.10509,0.30928 -0.21592,0.6069 -0.30929,0.91618 z m 77.12876,-21.8017 c -1.81486,14.40802 -10.19475,26.86699 -27.43886,31.93226 -15.17833,4.4467 -34.99009,0.93952 -48.52279,-9.24938 0.18091,-0.21592 0.3443,-0.45518 0.5252,-0.67693 14.11041,11.32101 33.79964,15.33588 50.92706,7.2011 12.28971,-5.84725 20.62291,-16.75977 24.50939,-29.20705 z m -5.78304,-43.73761 c -2.10081,-0.69444 -3.90984,1.87321 -2.82443,3.71725 1.80319,3.08119 3.16872,6.36078 4.18411,9.73374 -0.035,0.30345 -0.0176,0.63024 0.12841,0.99788 0.23343,0.56022 0.40265,1.13793 0.61858,1.70399 4.6101,19.60752 -3.46634,42.0278 -21.98844,51.58063 -3.73477,1.93158 -7.62709,3.15705 -11.57778,3.78145 4.24247,-7.21861 7.79049,-14.6823 10.47486,-22.67704 0.57772,-1.71565 -2.01328,-2.3634 -2.63185,-0.73528 -3.13953,8.12895 -6.69924,16.09451 -10.84833,23.73911 -5.78889,0.46101 -11.61862,-0.29761 -17.13908,-2.14165 5.4796,-6.06316 9.6462,-13.0075 12.29556,-20.92053 0.53103,-1.58728 -1.87322,-2.20585 -2.45094,-0.68861 -2.89445,7.63293 -6.97935,14.63562 -12.31306,20.7163 -4.54009,-1.79736 -8.85257,-4.28332 -12.70405,-7.35867 1.20213,-2.1008 2.27587,-4.28915 3.41382,-6.3491 2.51513,-4.55174 4.8727,-9.20269 7.24777,-13.8303 0.6711,-1.30718 -1.22547,-2.44511 -1.9549,-1.15545 -2.56182,4.52256 -5.15282,9.02762 -7.57459,13.6319 -1.03288,1.94907 -2.19416,3.92734 -3.26209,5.95228 -3.02865,-2.7077 -5.73636,-5.78304 -7.98889,-9.16185 0.61857,-1.26631 1.21381,-2.55598 1.72733,-3.88649 0.95703,-2.46261 -2.98198,-4.0849 -4.20161,-1.79152 -0.1225,0.23926 -0.26261,0.46685 -0.39682,0.70611 -0.35598,-0.71194 -0.74112,-1.39471 -1.0504,-2.12998 -0.68861,-1.58728 -3.37881,-1.55227 -4.08491,0 -5.81222,12.80908 -15.4059,21.26481 -26.27758,25.55397 4.65096,-6.97351 9.1852,-14.02288 13.5327,-21.18897 0.89284,-1.45305 -1.31885,-2.72521 -2.23504,-1.33052 -5.12946,7.7905 -10.06635,15.7152 -14.81651,23.75079 -6.55335,2.0016 -13.45099,2.58516 -20.17941,1.70983 5.87059,-9.69873 12.24303,-19.00647 19.1115,-28.04577 0.82865,-1.07958 -0.98038,-2.49179 -1.86155,-1.4589 -7.60375,8.92843 -14.0754,18.74386 -19.54332,29.13703 -5.29287,-0.9512 -10.45736,-2.73689 -15.22501,-5.46211 4.13157,-6.45413 7.97722,-13.10085 11.77033,-19.75925 0.60107,-1.05623 -0.9687,-1.96658 -1.60478,-0.95119 -4.1199,6.44831 -8.18147,12.96665 -11.96291,19.6367 -4.07323,-2.57932 -7.81968,-5.80639 -11.06426,-9.72791 0.17507,-0.25676 0.3268,-0.53103 0.53104,-0.77611 0.64192,-0.88119 1.26049,-1.76818 1.87322,-2.6727 0.93952,-1.33634 1.86155,-2.68436 2.78941,-4.02654 2.17083,-3.1337 4.24245,-6.31994 6.2032,-9.57618 0.67111,-1.12627 -0.95703,-2.00745 -1.69814,-1.00956 -3.89233,5.24035 -7.47537,10.69662 -10.95921,16.2229 -0.035,0.0466 -0.0701,0.0992 -0.0934,0.14582 -3.15704,-4.17243 -5.79472,-9.01012 -7.70295,-14.54225 -0.23926,-0.73527 -0.73528,-1.16711 -1.30134,-1.3772 0.31512,-1.0504 0.64775,-2.09496 0.88701,-3.19789 0.21008,-0.99204 -1.12044,-1.3305 -1.48223,-0.41433 -0.53105,1.38888 -1.14378,2.73106 -1.81488,4.03822 0,0.006 -0.006,0.0112 -0.0112,0.0176 0.36181,-1.82654 -2.0833,-3.22123 -3.10452,-1.348 -4.25415,7.87217 -11.39689,14.01704 -19.56085,17.45419 6.30826,-8.26318 12.42976,-16.6664 18.54545,-25.06379 0.84616,-1.16128 -1.04457,-2.23502 -1.87905,-1.12043 -6.89765,9.121 -13.78363,18.25952 -20.41868,27.56725 -5.952282,1.82653 -12.278052,2.21169 -18.341202,0.79364 4.28332,-5.09446 8.00057,-10.57406 11.05257,-16.57887 0.61275,-1.20212 -1.1496,-2.25837 -1.79152,-1.06207 -3.25041,6.03981 -7.00852,11.77619 -11.28599,17.11573 -2.54431,-0.78197 -5.024435,-1.86155 -7.399509,-3.33211 -1.809032,-1.12627 -3.460502,-2.41008 -4.954394,-3.81062 5.170317,-6.97352 9.698713,-14.33217 13.591043,-22.15184 0.50185,-1.00955 -0.96871,-1.90239 -1.50558,-0.89284 -4.026546,7.51621 -8.5141,14.75232 -13.357619,21.755 -3.688085,-3.89231 -6.325767,-8.60162 -7.889696,-13.67857 5.590473,-9.58785 11.250982,-19.04732 17.670105,-28.13913 0.77613,-1.09709 -0.992043,-2.10081 -1.768177,-1.04458 -6.12152,8.39157 -11.875384,17.20328 -16.643052,26.50518 -2.439264,-10.67327 -0.40265,-22.52532 6.045653,-31.52376 1.517243,-2.11831 -1.330516,-4.15493 -3.215399,-3.26209 -2.567645,1.21963 -5.036106,2.00161 -7.399504,2.38675 0.245087,-0.43183 0.437659,-0.87533 0.700268,-1.30133 1.085413,-1.7565 -1.639795,-3.35546 -2.742729,-1.62229 -0.653583,1.03872 -1.231299,2.10663 -1.779836,3.19206 -0.630248,-0.006 -1.242991,-0.0466 -1.849888,-0.11675 3.559704,-4.27163 7.061046,-8.54911 10.381492,-13.02499 0.665258,-0.90452 -0.811145,-2.05997 -1.540594,-1.21381 -3.892333,4.48755 -7.522057,9.14435 -11.134275,13.84782 -3.372961,-0.76446 -6.442474,-2.36924 -9.179357,-4.58677 7.463696,-9.9905 14.781504,-20.0802 21.930092,-30.30996 0.735279,-1.03873 -0.939526,-1.98993 -1.668975,-0.99204 -7.31198,10.00217 -14.460551,20.11521 -21.457406,30.33914 -2.491796,-2.25837 -4.691802,-5.02443 -6.54752,-8.12895 5.257859,-8.75336 10.469017,-17.5359 15.522629,-26.41765 0.688593,-1.22547 -1.143774,-2.31088 -1.873223,-1.10875 -5.047766,8.4324 -9.93797,16.9465 -14.79901,25.48978 -2.229187,-4.22496 -3.863152,-8.93427 -4.849364,-13.69026 4.569266,-8.21648 9.564517,-16.18204 14.75817,-24.0017 0.595221,-0.87534 -0.79364,-1.66315 -1.388862,-0.82865 -5.146983,7.21276 -9.646213,14.7815 -13.783633,22.61284 -0.927851,-5.77722 -0.89867,-11.5311 0.250933,-16.46216 5.847252,-24.92372 30.514211,-38.52061 54.574277,-33.15189 2.48012,0.55438 4.40002,-3.20955 1.82653,-4.39418 -1.68648,-0.77614 -3.162881,-1.69231 -4.464201,-2.6902 0.122504,-0.0642 0.245088,-0.0934 0.36764,-0.15764 0.245087,-0.12251 0.140073,-0.53103 -0.128414,-0.51936 -0.367639,0.0176 -0.711944,0.006 -1.067908,0 -0.729449,-0.61857 -1.423887,-1.26632 -2.04246,-1.95492 0.776135,-0.88118 0.344305,-2.53263 -1.172954,-2.72522 -0.285928,-0.0409 -0.577717,-0.0642 -0.863661,-0.0992 -9.949645,-16.67806 7.294478,-46.87131 23.814978,-60.91754 9.418612,-4.1491 21.282342,-8.13478 32.393262,-8.88174 14.64146,2.0658 28.27919,10.94754 35.56782,24.29932 1.37136,2.5093 4.791,0.71195 4.33582,-1.84987 -5.01275,-27.91738 25.2447,-46.32861 49.26975,-44.7355 25.76406,1.70398 44.60129,23.6399 46.18857,49.083 0.1225,2.13581 2.63767,3.37296 4.23079,1.77985 18.44624,-18.38789 46.83631,-28.41341 70.19027,-12.75072 22.6537,15.18998 25.02293,52.19335 -2.67269,63.54938 -2.48012,1.00956 -2.44511,5.20533 0.67109,5.08862 2.97029,-0.10509 5.81222,0.12251 8.52577,0.63025 0.5077,0.37347 1.12625,0.53103 1.82069,0.36764 0.72945,0.16922 1.40639,0.42599 2.10081,0.63608 0.035,0.0292 0.0466,0.0699 0.0818,0.10509 7.58625,6.60004 15.31839,13.13588 22.71789,19.98101 4.65679,9.94966 5.36874,22.02929 0.70611,33.40282 -10.61491,25.90994 -39.5185,33.74129 -64.273,25.53064 z m 73.55739,-31.73385 c -1.29549,5.05944 -3.96819,9.98467 -6.86846,14.30299 -0.77031,1.14377 -1.58728,2.22335 -2.42761,3.29126 2.96447,-4.34167 5.32204,-9.2844 6.91516,-14.83403 2.00159,-6.99101 2.24085,-13.95869 1.08542,-20.50621 2.77772,4.51674 3.39629,9.53534 1.29549,17.74599 z" />
    <text
       sodipodi:linespacing="125%"
       id="text4141"
       y="812.48468"
       x="206.70355"
       style="font-style:normal;font-variant:normal;font-weight:normal;font-stretch:normal;font-size:22.5px;line-height:125%;font-family:sans-serif;-inkscape-font-specification:'sans-serif, Normal';text-align:start;letter-spacing:0px;word-spacing:0px;writing-mode:lr-tb;text-anchor:start;fill:#000000;fill-opacity:1;stroke:none;stroke-width:1px;stroke-linecap:butt;stroke-linejoin:miter;stroke-opacity:1"
       xml:space="preserve"><tspan
         style="font-size:26.25px;text-align:center;text-anchor:middle;fill:#ffbd00;fill-opacity:1"
         id="tspan4159"
         y="812.48468"
         x="206.70355"
         sodipodi:role="line">Sharing same APTAG</tspan><tspan
         style="font-size:26.25px;text-align:center;text-anchor:middle;fill:#ffbd00;fill-opacity:1"
         id="tspan4186"
         y="845.29718"
         x="206.70355"
         sodipodi:role="line">with multiple users</tspan><tspan
         style="font-size:17.5px;text-align:center;text-anchor:middle;fill:#222222;fill-opacity:1"
         id="tspan4188"
         y="869.38812"
         x="206.70355"
         sodipodi:role="line">You can authorize more</tspan><tspan
         style="font-size:17.5px;text-align:center;text-anchor:middle;fill:#222222;fill-opacity:1"
         id="tspan4192"
         y="891.26312"
         x="209.4892"
         sodipodi:role="line">than one person to get </tspan><tspan
         style="font-size:17.5px;text-align:center;text-anchor:middle;fill:#222222;fill-opacity:1"
         id="tspan4194"
         y="913.13812"
         x="206.70355"
         sodipodi:role="line">the informtion of</tspan><tspan
         style="font-size:17.5px;text-align:center;text-anchor:middle;fill:#222222;fill-opacity:1"
         id="tspan4196"
         y="935.01312"
         x="206.70355"
         sodipodi:role="line"> your APTAG.</tspan><tspan
         style="text-align:center;text-anchor:middle"
         id="tspan4190"
         y="956.88812"
         x="206.70355"
         sodipodi:role="line" /></text>
  </g>
</svg>
