<?xml version="1.0" encoding="UTF-8" standalone="no"?>
<!-- Created with Inkscape (http://www.inkscape.org/) -->

<svg
   xmlns:dc="http://purl.org/dc/elements/1.1/"
   xmlns:cc="http://creativecommons.org/ns#"
   xmlns:rdf="http://www.w3.org/1999/02/22-rdf-syntax-ns#"
   xmlns:svg="http://www.w3.org/2000/svg"
   xmlns="http://www.w3.org/2000/svg"
   xmlns:sodipodi="http://sodipodi.sourceforge.net/DTD/sodipodi-0.dtd"
   xmlns:inkscape="http://www.inkscape.org/namespaces/inkscape"
   width="300"
   height="300"
   viewBox="0 0 300 300"
   id="svg10892"
   version="1.1"
   inkscape:version="0.91 r13725"
   sodipodi:docname="tag.svg">
  <defs
     id="defs10894" />
  <sodipodi:namedview
     id="base"
     pagecolor="#ffffff"
     bordercolor="#666666"
     borderopacity="1.0"
     inkscape:pageopacity="0.0"
     inkscape:pageshadow="2"
     inkscape:zoom="0.35"
     inkscape:cx="-119.28571"
     inkscape:cy="520"
     inkscape:document-units="px"
     inkscape:current-layer="layer1"
     showgrid="false"
     units="px"
     inkscape:window-width="1366"
     inkscape:window-height="702"
     inkscape:window-x="0"
     inkscape:window-y="27"
     inkscape:window-maximized="1" />
  <metadata
     id="metadata10897">
    <rdf:RDF>
      <cc:Work
         rdf:about="">
        <dc:format>image/svg+xml</dc:format>
        <dc:type
           rdf:resource="http://purl.org/dc/dcmitype/StillImage" />
        <dc:title></dc:title>
      </cc:Work>
    </rdf:RDF>
  </metadata>
  <g
     inkscape:label="Layer 1"
     inkscape:groupmode="layer"
     id="layer1"
     transform="translate(0,-752.36216)">
    <g
       id="g6054"
       transform="matrix(3.9267189,0,0,3.9267189,-1549.7619,-484.35618)"
       style="stroke-width:0.52093458;stroke-miterlimit:4;stroke-dasharray:none">
      <path
         d="m 462.88079,355.41719 c 0,16.57375 -13.43625,30.01 -30.01,30.01 -16.57375,0 -30.01001,-13.43625 -30.01001,-30.01 0,-16.57375 13.43626,-30.01 30.01001,-30.01 16.57374,0 30.01,13.43625 30.01,30.01"
         style="fill:#414e63;fill-opacity:1;fill-rule:nonzero;stroke:none;stroke-width:0.52093458;stroke-miterlimit:4;stroke-dasharray:none"
         id="path988"
         inkscape:connector-curvature="0" />
      <path
         d="m 459.72166,355.41719 c 0,14.82875 -12.02125,26.85 -26.85,26.85 -14.83,0 -26.85125,-12.02125 -26.85125,-26.85 0,-14.83 12.02125,-26.85125 26.85125,-26.85125 14.82875,0 26.85,12.02125 26.85,26.85125"
         style="fill:#6bc5d3;fill-opacity:1;fill-rule:nonzero;stroke:none;stroke-width:0.52093458;stroke-miterlimit:4;stroke-dasharray:none"
         id="path992"
         inkscape:connector-curvature="0" />
      <path
         d="m 455.38878,344.84656 c -0.48624,-5.02124 -9.72,-13.28375 -22.51749,-13.28375 l 0,18.63 15.87624,0 c 1.61875,0 7.12751,-0.32375 6.64125,-5.34625"
         style="fill:#414e63;fill-opacity:1;fill-rule:nonzero;stroke:none;stroke-width:0.52093458;stroke-miterlimit:4;stroke-dasharray:none"
         id="path996"
         inkscape:connector-curvature="0" />
      <path
         d="m 410.35329,344.84656 c -0.48626,5.0225 5.0225,5.34625 6.64125,5.34625 l 15.87624,0 0,-18.63 c -12.7975,0 -22.03125,8.26251 -22.51749,13.28375"
         style="fill:#414e63;fill-opacity:1;fill-rule:nonzero;stroke:none;stroke-width:0.52093458;stroke-miterlimit:4;stroke-dasharray:none"
         id="path1000"
         inkscape:connector-curvature="0" />
      <path
         d="m 410.35329,365.74432 c 0.48625,5.02249 9.72,13.28375 22.5175,13.28375 l 0,-18.63 -15.87625,0 c -1.61875,0 -7.12751,0.32375 -6.64125,5.34625"
         style="fill:#414e63;fill-opacity:1;fill-rule:nonzero;stroke:none;stroke-width:0.52093458;stroke-miterlimit:4;stroke-dasharray:none"
         id="path1004"
         inkscape:connector-curvature="0" />
      <path
         d="m 455.38878,365.74432 c 0.48626,-5.0225 -5.02249,-5.34625 -6.64124,-5.34625 l -15.87625,0 0,18.63 c 12.7975,0 22.03125,-8.26125 22.5175,-13.28375"
         style="fill:#414e63;fill-opacity:1;fill-rule:nonzero;stroke:none;stroke-width:0.52093458;stroke-miterlimit:4;stroke-dasharray:none"
         id="path1008"
         inkscape:connector-curvature="0" />
      <path
         d="m 425.88491,326.37907 c 0,0 3.56375,-1.13376 4.2125,-2.75375 0.6475,-1.62 1.78125,-2.75375 3.56375,-2.75375 1.78125,0 4.21125,4.21125 6.64125,5.5075 -2.2675,1.29625 -13.28375,0.81 -13.28375,0.81 l -1.13375,-0.81 z"
         style="fill:#414e63;fill-opacity:1;fill-rule:nonzero;stroke:none;stroke-width:0.52093458;stroke-miterlimit:4;stroke-dasharray:none"
         id="path1012"
         inkscape:connector-curvature="0" />
      <path
         d="m 434.79491,323.78757 c 0,0.805 -0.6525,1.45749 -1.4575,1.45749 -0.80625,0 -1.45875,-0.65249 -1.45875,-1.45749 0,-0.80625 0.6525,-1.45875 1.45875,-1.45875 0.805,0 1.4575,0.6525 1.4575,1.45875"
         style="fill:#ffffff;fill-opacity:1;fill-rule:nonzero;stroke:none;stroke-width:0.52093458;stroke-miterlimit:4;stroke-dasharray:none"
         id="path1016"
         inkscape:connector-curvature="0" />
    </g>
  </g>
</svg>
